<?xml version="1.0" encoding="utf-8"?>
<!-- Generator: Adobe Illustrator 23.0.5, SVG Export Plug-In . SVG Version: 6.00 Build 0)  -->
<svg version="1.1" id="Warstwa_1" xmlns="http://www.w3.org/2000/svg" xmlns:xlink="http://www.w3.org/1999/xlink" x="0px" y="0px"
	 viewBox="0 0 523 393" className="bg-orange-300" style="enable-background:new 0 0 523 393;" xml:space="preserve">
<style type="text/css">
	.st0{fill:#fdba74;}
</style>
<path class="st0" d="M30.5,1.5c61.2-11.1,129,42.7,285,37c9.5-0.3,18.2-1,32,0c12.9,0.9,122.2,7.7,154,90c17,44,22.5,54.5,21.5,74.5
	c-1.2,24.8-8,92-25,122c-18.7,33.1-24,36-58,54c-37.7,20-66.7,15-99,8c-38.8-8.4-95.7-42.3-105-47c-12-6-47-29.3-88.5-58.5
	c-34.9-24.5-45.2-32.7-96-72c-6.7-5.2-13.9-10.8-21-19C-12,141-2.5,7.5,30.5,1.5z"/>
</svg>
